<svg width="22" height="22" viewBox="0 0 22 22" fill="none" xmlns="http://www.w3.org/2000/svg">
<path d="M14.845 2.00354L12.6404 2C10.1637 2 8.56318 3.64212 8.56318 6.18372V8.1127H6.34664C6.1551 8.1127 6 8.26798 6 8.45952V11.2544C6 11.446 6.15528 11.601 6.34664 11.601H8.56318V18.6534C8.56318 18.8449 8.71829 19 8.90982 19H11.8018C11.9933 19 12.1484 18.8447 12.1484 18.6534V11.601H14.7401C14.9316 11.601 15.0867 11.446 15.0867 11.2544L15.0878 8.45952C15.0878 8.36755 15.0512 8.27948 14.9863 8.21439C14.9214 8.14931 14.8329 8.1127 14.741 8.1127H12.1484V6.47748C12.1484 5.69153 12.3357 5.29254 13.3595 5.29254L14.8446 5.29201C15.036 5.29201 15.1911 5.13673 15.1911 4.94537V2.35018C15.1911 2.15899 15.0361 2.00389 14.845 2.00354Z" fill="#959595"/>
</svg>
