<svg width="36" height="36" viewBox="0 0 36 36" fill="none" xmlns="http://www.w3.org/2000/svg">
<g id="free-icon-bathtub-818415 1" clip-path="url(#clip0_2610_50)">
<g id="Group">
<g id="Group_2">
<path id="Vector" d="M33.1875 14.7656V5.83594C33.1875 2.61795 30.5696 0 27.3516 0C24.1336 0 21.5156 2.61795 21.5156 5.83594H24.3281C24.3281 4.16883 25.6845 2.8125 27.3516 2.8125C29.0187 2.8125 30.375 4.16883 30.375 5.83594V14.7656H24.2104C24.2857 14.5933 24.3281 14.4032 24.3281 14.2031C24.3281 13.4265 23.6985 12.7969 22.9219 12.7969C22.1452 12.7969 21.5156 13.4265 21.5156 14.2031C21.5156 14.4032 21.5581 14.5933 21.6334 14.7656H0V18C0 25.8932 4.88742 30.353 9.01709 32.1877C8.09072 33.1908 7.52344 34.5302 7.52344 36H10.3359C10.3359 34.4492 11.5976 33.1875 13.1484 33.1875H22.8516C24.4024 33.1875 25.6641 34.4492 25.6641 36H28.4766C28.4766 34.5302 27.9093 33.1908 26.9829 32.1877C31.1126 30.353 36 25.8932 36 18V14.7656H33.1875ZM33.1875 18C33.1875 22.9288 30.9129 25.9381 29.0049 27.5947C26.6719 29.6202 24.0787 30.375 22.9922 30.375H13.0078C11.9213 30.375 9.32815 29.6202 6.99511 27.5947C5.08711 25.9381 2.8125 22.9288 2.8125 18V17.5781H33.1875V18Z" fill="white"/>
</g>
</g>
<g id="Group_3">
<g id="Group_4">
<path id="Vector_2" d="M22.9219 10.6875C23.6985 10.6875 24.3281 10.0579 24.3281 9.28125C24.3281 8.5046 23.6985 7.875 22.9219 7.875C22.1452 7.875 21.5156 8.5046 21.5156 9.28125C21.5156 10.0579 22.1452 10.6875 22.9219 10.6875Z" fill="white"/>
</g>
</g>
</g>
<defs>
<clipPath id="clip0_2610_50">
<rect width="36" height="36" fill="white"/>
</clipPath>
</defs>
</svg>
