<svg width="22" height="22" viewBox="0 0 22 22" fill="none" xmlns="http://www.w3.org/2000/svg">
<path d="M19.7888 15.7328C19.7659 15.6835 19.7446 15.6426 19.7247 15.6098C19.397 15.0196 18.7708 14.2951 17.8463 13.4362L17.8268 13.4165L17.8171 13.4069L17.8071 13.397H17.7972C17.3776 12.9971 17.1119 12.7281 17.0007 12.5905C16.7972 12.3282 16.7515 12.0627 16.8628 11.7937C16.9414 11.5905 17.2367 11.1613 17.7479 10.5055C18.0168 10.158 18.2298 9.87947 18.3871 9.66962C19.5215 8.16156 20.0133 7.19789 19.8624 6.77823L19.8038 6.68016C19.7644 6.62112 19.6628 6.56711 19.499 6.51785C19.335 6.4687 19.1252 6.46057 18.8695 6.49333L16.0372 6.51289C15.9913 6.49663 15.9257 6.49815 15.8404 6.51785C15.7552 6.53756 15.7125 6.54744 15.7125 6.54744L15.6632 6.57207L15.6241 6.60166C15.5913 6.62123 15.5552 6.65564 15.5158 6.70483C15.4766 6.75384 15.444 6.81137 15.4177 6.87692C15.1093 7.67025 14.7588 8.40785 14.3653 9.08968C14.1227 9.49625 13.8999 9.8486 13.6965 10.1469C13.4932 10.4452 13.3227 10.6649 13.1851 10.8058C13.0473 10.9467 12.923 11.0597 12.8113 11.145C12.6999 11.2304 12.6148 11.2664 12.5558 11.2532C12.4967 11.2401 12.4411 11.227 12.3884 11.2139C12.2967 11.1548 12.2229 11.0745 12.1673 10.9729C12.1114 10.8713 12.0738 10.7434 12.0542 10.5893C12.0345 10.4351 12.023 10.3025 12.0197 10.191C12.0166 10.0797 12.018 9.92215 12.0247 9.71891C12.0315 9.51557 12.0345 9.37799 12.0345 9.30587C12.0345 9.05668 12.0394 8.78624 12.0491 8.49449C12.0591 8.20272 12.0671 7.97156 12.0738 7.80125C12.0805 7.63077 12.0836 7.45042 12.0836 7.26028C12.0836 7.07013 12.072 6.92101 12.0491 6.81278C12.0266 6.70469 11.9919 6.59977 11.9462 6.49805C11.9002 6.39643 11.8329 6.31782 11.7446 6.26202C11.6561 6.20629 11.546 6.16206 11.4151 6.1292C11.0676 6.05055 10.625 6.00801 10.0873 6.0014C8.86787 5.98831 8.08433 6.06705 7.73683 6.23753C7.59915 6.30956 7.47455 6.40797 7.36316 6.53246C7.24511 6.67675 7.22865 6.7555 7.31387 6.76845C7.70731 6.82739 7.98584 6.96838 8.14978 7.19128L8.20885 7.3094C8.2548 7.39461 8.30068 7.54549 8.3466 7.76181C8.39245 7.97813 8.42204 8.21743 8.43505 8.47956C8.46778 8.95826 8.46778 9.36804 8.43505 9.70892C8.40223 10.0499 8.37123 10.3154 8.34164 10.5056C8.31205 10.6957 8.26782 10.8498 8.20885 10.9678C8.14978 11.0858 8.11047 11.1579 8.09077 11.1841C8.07109 11.2103 8.0547 11.2268 8.04168 11.2332C7.95646 11.2659 7.86783 11.2825 7.7761 11.2825C7.68423 11.2825 7.57283 11.2366 7.44173 11.1447C7.31066 11.0529 7.17464 10.9268 7.03364 10.7661C6.89265 10.6054 6.73366 10.3809 6.55656 10.0924C6.37961 9.80396 6.19601 9.46304 6.00587 9.06967L5.84855 8.78438C5.75021 8.60085 5.61587 8.33362 5.4454 7.98292C5.27482 7.63209 5.12405 7.29272 4.99298 6.96489C4.94058 6.82721 4.86187 6.72239 4.75699 6.65026L4.70777 6.62067C4.67504 6.5945 4.62251 6.5667 4.55045 6.53707C4.47829 6.50748 4.40298 6.48627 4.32424 6.47321L1.62954 6.49278C1.35418 6.49278 1.16734 6.55516 1.06896 6.67975L1.02959 6.73869C1.00992 6.77151 1 6.82394 1 6.89611C1 6.96824 1.01967 7.05677 1.05904 7.16158C1.45242 8.08613 1.88021 8.97777 2.34241 9.83664C2.80461 10.6955 3.20625 11.3874 3.54709 11.9116C3.88801 12.4362 4.23551 12.9313 4.58958 13.3966C4.94365 13.8622 5.17802 14.1605 5.2927 14.2916C5.40751 14.4229 5.49768 14.5211 5.56323 14.5866L5.80915 14.8226C5.9665 14.98 6.19756 15.1685 6.50245 15.3881C6.8074 15.6078 7.14501 15.8241 7.51545 16.0374C7.88594 16.2503 8.31698 16.424 8.80876 16.5584C9.30049 16.6929 9.77908 16.7469 10.2446 16.7209H11.3757C11.605 16.701 11.7788 16.629 11.8969 16.5045L11.936 16.4552C11.9624 16.416 11.987 16.3553 12.0097 16.2734C12.0327 16.1915 12.0441 16.1012 12.0441 16.003C12.0374 15.7211 12.0589 15.467 12.108 15.2409C12.157 15.0148 12.2128 14.8443 12.2753 14.7295C12.3378 14.6148 12.4082 14.518 12.4867 14.4395C12.5653 14.3609 12.6213 14.3133 12.6542 14.2969C12.6868 14.2804 12.7129 14.2692 12.7326 14.2624C12.8899 14.21 13.0751 14.2608 13.2884 14.415C13.5015 14.5691 13.7015 14.7593 13.8884 14.9854C14.0753 15.2117 14.2998 15.4657 14.5619 15.7475C14.8244 16.0295 15.0538 16.2391 15.2503 16.377L15.447 16.495C15.5784 16.5737 15.7488 16.6459 15.9587 16.7114C16.1682 16.777 16.3517 16.7934 16.5092 16.7606L19.0268 16.7213C19.2759 16.7213 19.4696 16.6801 19.607 16.5983C19.7448 16.5163 19.8266 16.426 19.8529 16.3279C19.8793 16.2296 19.8807 16.118 19.8579 15.9933C19.8346 15.8689 19.8116 15.7819 19.7888 15.7328Z" fill="#959595"/>
</svg>
